<?xml version="1.0" encoding="utf-8"?>
<!-- Generator: Adobe Illustrator 20.1.0, SVG Export Plug-In . SVG Version: 6.00 Build 0)  -->
<svg version="1.1" id="Layer_1" xmlns="http://www.w3.org/2000/svg" xmlns:xlink="http://www.w3.org/1999/xlink" x="0px" y="0px"
	 viewBox="0 0 512 512" style="enable-background:new 0 0 512 512;" xml:space="preserve">
<style type="text/css">
	.st0{fill:#F6921E;}
</style>
<g>
	<path class="st0" d="M256,507c-33.9,0-66.8-6.6-97.7-19.7c-29.9-12.6-56.7-30.7-79.8-53.8c-23-23-41.1-49.9-53.8-79.8
		C11.6,322.8,5,289.9,5,256c0-33.9,6.6-66.8,19.7-97.7c12.6-29.9,30.7-56.7,53.8-79.8c23-23,49.9-41.1,79.8-53.8
		C189.2,11.6,222.1,5,256,5s66.8,6.6,97.7,19.7c29.9,12.6,56.7,30.7,79.8,53.8c23,23,41.1,49.9,53.8,79.8
		c13.1,30.9,19.7,63.8,19.7,97.7c0,33.9-6.6,66.8-19.7,97.7c-12.6,29.9-30.7,56.7-53.8,79.8c-23,23-49.9,41.1-79.8,53.8
		C322.8,500.4,289.9,507,256,507z M256,16.4C123.9,16.4,16.4,123.9,16.4,256S123.9,495.6,256,495.6S495.6,388.1,495.6,256
		S388.1,16.4,256,16.4z"/>
</g>
<g>
	<g>
		<g>
			<path class="st0" d="M368.2,315.9c-7.6-15.8-34.8-37.8-61.1-59.1c-14.7-11.8-28.5-23-37.3-31.9c-2.2-2.2-5.5-2.9-8.4-1.9
				c-5.4,2-8.8,3.5-11.4,4.7c-4,1.8-5.4,2.4-10.8,3c-2.4,0.2-4.6,1.5-5.9,3.5c-11.4,17.1-23.2,15.6-31.1,13c-2.5-0.8-3-1.9-3.2-3
				c-1.7-7.1,6.8-23.6,17.8-34.6c26.2-26.2,39.7-32.8,68.3-20c32.4,14.5,64.9,25.8,65.2,25.9c4.2,1.5,8.8-0.8,10.3-5
				c1.5-4.2-0.8-8.8-5-10.3c-0.3-0.1-32.1-11.2-63.9-25.4c-37-16.5-57.3-5.6-86.3,23.4c-11,11-26,33.4-22.2,49.8
				c1.7,7,6.6,12.1,13.9,14.5c18.3,6,35,0.3,47.4-16.2c5.1-0.8,7.9-2,12.1-3.8c1.5-0.7,3.3-1.5,5.6-2.4c9.2,8.7,21.7,18.8,34.8,29.4
				c23.7,19.2,50.6,40.9,56.7,53.5c3,6.2-0.2,10.3-2.4,12.1c-3.2,2.7-7.6,3.6-9.9,2c-2.6-1.8-6-1.9-8.7-0.3
				c-2.7,1.6-4.2,4.7-3.9,7.8c0.5,5.1-4.1,8.1-6.2,9.1c-5.2,2.6-10.6,2.2-12.6,0.3c-2.3-2.1-5.5-2.7-8.4-1.6
				c-2.9,1.1-4.9,3.7-5.2,6.8c-0.5,5.3-4.4,10.4-9.5,12.4c-2.5,0.9-6.1,1.5-9.3-1.4c-2-1.8-4.8-2.5-7.4-1.9
				c-2.6,0.6-4.7,2.5-5.7,5.1c-0.3,0.8-1,2.7-8.6,2.7c-5.4,0-15-3.6-19.8-6.8c-5.7-3.7-41.2-30.2-71.9-55.9
				c-4.3-3.6-11.8-11.4-18.3-18.3c-5.8-6.1-11.2-11.6-13.9-14c-3.4-2.9-8.5-2.5-11.4,1c-2.9,3.4-2.5,8.5,1,11.4
				c2.5,2.1,7.3,7.2,12.7,12.8c7.2,7.5,14.6,15.3,19.6,19.5c30,25.2,66.2,52.3,73.4,57c5.9,3.9,18.7,9.4,28.6,9.4
				c8,0,14.1-1.8,18.3-5.4c5.7,2.2,12.1,2.2,18.3-0.2c7.3-2.8,13.4-8.6,16.8-15.5c6.4,1.4,13.6,0.4,20.3-2.9
				c6.5-3.3,11.2-8.2,13.5-14.1c6.4,0.3,13-1.9,18.5-6.6C371,339.4,373.5,327.1,368.2,315.9z"/>
		</g>
	</g>
	<g>
		<g>
			<path class="st0" d="M223.7,182.2h-72.6c-4.5,0-8.1,3.6-8.1,8.1c0,4.5,3.6,8.1,8.1,8.1h72.6c4.5,0,8.1-3.6,8.1-8.1
				C231.8,185.9,228.2,182.2,223.7,182.2z"/>
		</g>
	</g>
	<g>
		<g>
			<path class="st0" d="M391.8,298.8c-2.5-3.7-7.5-4.7-11.2-2.2L357,312.4c-3.7,2.5-4.7,7.5-2.2,11.2c1.6,2.3,4.1,3.6,6.7,3.6
				c1.5,0,3.1-0.4,4.5-1.4l23.6-15.8C393.3,307.5,394.3,302.5,391.8,298.8z"/>
		</g>
	</g>
	<g>
		<g>
			<path class="st0" d="M341.7,337.3c-5.8-4.6-31.6-31-47.6-47.7c-3.1-3.2-8.2-3.3-11.4-0.2c-3.2,3.1-3.3,8.2-0.2,11.4
				c4.1,4.3,40.7,42.5,49.2,49.2c1.5,1.2,3.2,1.7,5,1.7c2.4,0,4.7-1.1,6.4-3.1C345.8,345.1,345.2,340,341.7,337.3z"/>
		</g>
	</g>
	<g>
		<g>
			<path class="st0" d="M309.5,353.5c-9.7-7.7-34-33.5-39.4-39.5c-3-3.3-8.1-3.5-11.4-0.5c-3.3,3-3.5,8.1-0.5,11.4
				c0.3,0.3,29.3,31.6,41.2,41.2c1.5,1.2,3.3,1.8,5,1.8c2.4,0,4.7-1,6.3-3C313.5,361.3,312.9,356.2,309.5,353.5z"/>
		</g>
	</g>
	<g>
		<g>
			<path class="st0" d="M277.3,369.7c-11.5-9.7-35-34.8-39.6-39.7c-3-3.3-8.2-3.4-11.4-0.4c-3.3,3-3.4,8.1-0.4,11.4
				c6.6,7.1,29.1,31,41,41c1.5,1.3,3.4,1.9,5.2,1.9c2.3,0,4.6-1,6.2-2.9C281.2,377.7,280.8,372.6,277.3,369.7z"/>
		</g>
	</g>
	<g>
		<g>
			<path class="st0" d="M156.7,168.3C142.8,155.2,87.5,151,70.9,150c-2.3-0.1-4.4,0.6-6,2.2c-1.6,1.5-2.5,3.6-2.5,5.9v145.2
				c0,4.5,3.6,8.1,8.1,8.1h48.4c3.5,0,6.6-2.2,7.7-5.6c1.2-3.6,29-88.9,32.6-130.9C159.4,172.4,158.5,170,156.7,168.3z M112.9,295.2
				H78.5V166.7c25.9,2,53.9,6.5,64.1,11.4C138.3,213.5,118.9,276.3,112.9,295.2z"/>
		</g>
	</g>
	<g>
		<g>
			<path class="st0" d="M441.6,166.1c-63.4,0-98.5,16.2-100,16.9c-2.1,1-3.7,2.8-4.3,5c-0.6,2.2-0.3,4.6,0.9,6.6
				c10,16.1,41.2,105.2,47.2,127c1,3.5,4.1,5.9,7.8,5.9h48.4c4.5,0,8.1-3.6,8.1-8.1V174.2C449.6,169.7,446,166.1,441.6,166.1z
				 M433.5,311.3h-34.3c-7.6-24.9-30.2-89.9-42.8-116.7c12.3-4.2,38.8-11.4,77.2-12.3V311.3z"/>
		</g>
	</g>
</g>
</svg>
